<?xml version="1.0" standalone="no"?>
<!DOCTYPE svg PUBLIC "-//W3C//DTD SVG 20010904//EN"
 "http://www.w3.org/TR/2001/REC-SVG-20010904/DTD/svg10.dtd">
<svg version="1.0" xmlns="http://www.w3.org/2000/svg"
 width="40pt" height="40pt" viewBox="0 0 1024.000000 1024.000000"
 preserveAspectRatio="xMidYMid meet">
<metadata>
Created by potrace 1.16, written by Peter Selinger 2001-2019
</metadata>
<g transform="translate(0.000000,1024.000000) scale(0.100000,-0.100000)"
fill="#000000" stroke="none">
<path d="M3477 6843 c-2 -760 -6 -992 -16 -1041 -11 -50 -11 -65 -1 -77 10
-13 10 -19 -4 -33 -16 -19 -23 -72 -8 -72 4 0 13 5 20 12 9 9 12 -300 12
-1391 0 -1275 1 -1403 16 -1397 9 3 171 6 360 6 l344 0 0 1099 0 1100 1013 4
1012 4 124 27 c222 48 327 94 456 199 247 200 407 476 471 812 25 133 29 173
29 345 0 206 -6 252 -62 460 -47 175 -160 370 -304 524 -146 156 -310 260
-510 325 -210 68 -124 64 -1606 68 l-1342 4 -4 -978z m2283 372 c274 -50 453
-160 601 -370 119 -169 176 -361 165 -560 -9 -184 -46 -283 -165 -442 -14 -18
-28 -33 -33 -33 -18 0 -7 60 16 87 l24 28 -45 70 c-24 39 -96 156 -160 260
-63 105 -143 233 -177 285 -35 52 -78 121 -97 153 -18 31 -36 57 -39 57 -3 0
-11 -9 -17 -19 -10 -15 -9 -22 2 -31 12 -10 13 -8 10 11 -3 16 -1 19 6 12 15
-15 3 -47 -30 -86 -15 -18 -56 -72 -91 -122 -35 -49 -109 -150 -165 -224 -55
-73 -115 -154 -132 -180 -18 -25 -33 -41 -33 -35 0 6 19 37 42 70 23 32 34 53
25 45 -14 -11 -17 -11 -17 0 0 7 -31 -29 -69 -81 -38 -52 -68 -97 -65 -101 2
-4 1 -9 -4 -11 -16 -6 -62 -75 -62 -92 0 -10 -5 -14 -12 -10 -7 4 -8 3 -4 -5
6 -9 11 -9 22 0 7 6 11 16 7 22 -3 6 -1 7 5 3 7 -4 12 -3 12 2 0 6 16 29 35
52 51 61 43 38 -20 -56 -48 -71 -54 -85 -44 -102 8 -12 9 -37 5 -75 -7 -55 -8
-57 -34 -51 -15 3 -57 20 -93 37 l-65 32 -84 -42 c-45 -24 -91 -43 -101 -43
-21 0 -57 57 -90 140 -44 115 -39 107 -54 87 -12 -16 -16 -15 -56 16 -35 26
-55 56 -101 147 -31 63 -68 144 -82 180 -37 100 -104 261 -122 298 -18 33 -34
42 -34 19 0 -7 -18 -50 -40 -96 -43 -89 -46 -106 -28 -146 10 -22 9 -31 -6
-56 -16 -26 -16 -31 -2 -45 19 -19 19 -14 1 -57 -21 -50 -20 -60 6 -47 35 19
29 7 -16 -32 l-42 -37 -7 77 c-3 42 -6 235 -5 427 0 193 -3 360 -7 370 -6 17
-4 17 19 -4 30 -27 32 -25 16 16 -15 40 -31 220 -24 274 l7 46 711 -4 c689 -5
716 -5 837 -28z m157 -919 c31 -50 84 -134 118 -186 158 -242 235 -361 235
-364 0 -12 -200 -88 -280 -107 -120 -28 -377 -30 -538 -5 -117 18 -145 29
-138 54 2 9 8 28 12 42 4 13 64 101 133 195 70 93 181 246 246 338 139 194
115 191 212 33z"/>
<path d="M5733 6583 c-3 -10 -15 -25 -26 -34 -11 -9 -16 -18 -11 -21 13 -7 67
59 54 67 -5 3 -13 -2 -17 -12z"/>
<path d="M5650 6479 c-19 -23 -39 -49 -44 -58 -5 -9 -12 -18 -16 -21 -3 -3
-23 -32 -44 -65 -20 -33 -49 -75 -63 -92 -21 -27 -22 -33 -9 -33 9 0 15 3 15
8 -3 20 2 33 11 27 6 -4 9 -3 8 2 -2 4 2 10 7 13 16 7 60 63 58 72 -2 4 2 8 9
8 6 0 9 3 6 6 -3 3 5 17 18 31 14 15 22 33 19 40 -2 8 -1 11 4 8 5 -3 13 0 17
6 5 8 3 9 -6 4 -8 -5 -11 -3 -8 6 3 8 12 13 21 13 9 -1 14 2 11 7 -2 5 3 20
12 34 24 37 14 31 -26 -16z"/>
<path d="M5772 6014 c-21 -14 -22 -22 -22 -149 l0 -133 65 -4 65 -3 0 136 c0
119 -2 138 -18 152 -23 21 -61 22 -90 1z"/>
</g>
</svg>
